<svg xmlns="http://www.w3.org/2000/svg" xmlns:xlink="http://www.w3.org/1999/xlink" width="375" height="812" viewBox="0 0 375 812">
  <defs>
    <clipPath id="clip-iPhone_X_XS_11_Pro_7">
      <rect width="375" height="812"/>
    </clipPath>
  </defs>
  <g id="iPhone_X_XS_11_Pro_7" data-name="iPhone X/XS/11 Pro – 7" clip-path="url(#clip-iPhone_X_XS_11_Pro_7)">
    <rect width="375" height="812" fill="#fff"/>
    <g id="EmptyCart" transform="translate(-31 313)" style="isolation: isolate">
      <g id="Asset_3" data-name="Asset 3" transform="translate(63 -93)" style="isolation: isolate">
        <g id="Layer_2" data-name="Layer 2">
          <g id="Layer_1" data-name="Layer 1">
            <path id="Path_42" data-name="Path 42" d="M61.13,119.811v68.3l127.468-73.6V46.22Z" transform="translate(-12.46 -9.421)" fill="#a48465"/>
            <path id="Path_43" data-name="Path 43" d="M160.08,255.184l45.653,7.022,137.07-77.97-51.521-29.379-12.818-2.707Z" transform="translate(-32.628 -31.011)" fill="#c2a49d" style="mix-blend-mode: multiply;isolation: isolate"/>
            <path id="Path_44" data-name="Path 44" d="M61.13,205.6,188.6,132l78.774,45.486L139.9,251.077Z" transform="translate(-12.46 -26.904)" fill="#e3c5a1"/>
            <path id="Path_45" data-name="Path 45" d="M139.912,184.136v68.3L61.13,206.954v-68.3Z" transform="translate(-12.46 -28.26)" fill="#cdad8a"/>
            <path id="Path_46" data-name="Path 46" d="M300.012,91.7V160L221.23,114.516V46.22Z" transform="translate(-45.091 -9.421)" fill="#cdad8a"/>
            <path id="Path_47" data-name="Path 47" d="M160.07,176.931v68.3l127.468-73.591v-68.3Z" transform="translate(-32.626 -21.063)" fill="#a48465"/>
            <path id="Path_48" data-name="Path 48" d="M160.08,176.939v8.312L287.54,111.66v-8.32Z" transform="translate(-32.628 -21.063)" fill="#bb9673"/>
            <path id="Path_49" data-name="Path 49" d="M139.912,184.136v8.312L61.13,146.962V138.65Z" transform="translate(-12.46 -28.26)" fill="#e0c5a4"/>
            <path id="Path_50" data-name="Path 50" d="M286.892,105.788,161.367,178.24a.589.589,0,0,0-.287.454c0,.159.127.207.287.119l125.526-72.452a.6.6,0,0,0,.295-.454C287.187,105.748,287.051,105.692,286.892,105.788Z" transform="translate(-32.831 -21.552)" fill="#a48465"/>
            <path id="Path_51" data-name="Path 51" d="M119.674,193.762a2.971,2.971,0,0,0,0-.518s-.358.048-.454.215h0c-2.389-1.194-2.5,1-2.5,1h0c.056-.159.207-.207.382-.1a.924.924,0,0,1,.374.541h0c.056-.159.207-.207.382-.1a.868.868,0,0,1,.374.541h.048c.048-.159.2-.207.374-.1a.908.908,0,0,1,.382.541h0a.215.215,0,0,1,.175-.151v3.081c0,.167-.111.231-.247.151a.533.533,0,0,1-.247-.438v-.494a.454.454,0,0,0-.207-.358.127.127,0,0,0-.207.119v.5a1.457,1.457,0,0,0,.661,1.154c.358.207.653,0,.653-.4v-3.089a1,1,0,0,1,.175.358h0c.056-.159.207-.207.382-.1a.884.884,0,0,1,.374.533h0c.056-.159.207-.207.382-.1a.852.852,0,0,1,.374.533h.048c.056-.159.2-.207.374-.111a.932.932,0,0,1,.382.541h0A5.573,5.573,0,0,0,119.674,193.762Z" transform="translate(-23.79 -39.358)" fill="#7f6b59"/>
            <path id="Path_52" data-name="Path 52" d="M118.527,192.531c.119.127.255.151.35,0a1.863,1.863,0,0,0,0-.7s-.358.048-.454.223A.462.462,0,0,0,118.527,192.531Z" transform="translate(-24.132 -39.099)" fill="#7f6b59"/>
            <path id="Path_53" data-name="Path 53" d="M119.673,192.573c.111.135.255.151.342,0a1.863,1.863,0,0,0,.048-.693s-.366.048-.454.215A.446.446,0,0,0,119.673,192.573Z" transform="translate(-24.37 -39.109)" fill="#7f6b59"/>
            <path id="Path_54" data-name="Path 54" d="M122.447,193.809a.446.446,0,0,0,.064.5c.111.135.255.151.35,0a2.054,2.054,0,0,0,0-.7S122.543,193.634,122.447,193.809Z" transform="translate(-24.947 -39.462)" fill="#7f6b59"/>
            <path id="Path_55" data-name="Path 55" d="M122.627,195.371a.446.446,0,0,0,.064.5c.111.135.255.151.342,0a1.871,1.871,0,0,0,.048-.693S122.715,195.2,122.627,195.371Z" transform="translate(-24.984 -39.782)" fill="#7f6b59"/>
            <path id="Path_56" data-name="Path 56" d="M120.964,192.551c.111.135.255.151.342,0a1.863,1.863,0,0,0,0-.7s-.358.048-.454.223A.446.446,0,0,0,120.964,192.551Z" transform="translate(-24.627 -39.103)" fill="#7f6b59"/>
            <path id="Path_57" data-name="Path 57" d="M121.2,193.6a.446.446,0,0,0,.064.5c.111.135.255.151.35,0a2.006,2.006,0,0,0,0-.693S121.293,193.434,121.2,193.6Z" transform="translate(-24.692 -39.421)" fill="#7f6b59"/>
            <path id="Path_58" data-name="Path 58" d="M122.184,192.663c.111.135.247.151.342,0a1.823,1.823,0,0,0,0-.693s-.358.048-.454.215a.446.446,0,0,0,.111.478Z" transform="translate(-24.875 -39.127)" fill="#7f6b59"/>
            <path id="Path_59" data-name="Path 59" d="M123.475,201.942l-8.893-5.135a.334.334,0,0,1-.151-.255V185.97c0-.1.072-.143.151-.1l8.893,5.135a.342.342,0,0,1,.143.263v10.621C123.642,201.95,123.554,201.99,123.475,201.942Zm-8.758-5.4,8.6,4.96V191.257l-8.6-4.968Z" transform="translate(-23.323 -37.881)" fill="#7f6b59"/>
            <path id="Path_60" data-name="Path 60" d="M123.475,207.146,114.581,202c-.08-.048-.151,0-.151.1V212.7a.334.334,0,0,0,.151.255l8.893,5.135c.08.048.143,0,.143-.088V207.409A.342.342,0,0,0,123.475,207.146Zm-.151,10.518-8.6-4.96V202.449l8.6,4.968Z" transform="translate(-23.323 -41.167)" fill="#7f6b59"/>
            <path id="Path_61" data-name="Path 61" d="M119.334,210.425v3.089l-1.146-.183,1.146.661.438.255,1.194.685-1.194-1.162v-3.081a1.529,1.529,0,0,0,1.521.056,1.752,1.752,0,0,0,.693-1.592L118.96,207.4l-.271.326.5.525-.86.748.143-.9-.287-.406.167-.645-1.154-.669a5.39,5.39,0,0,0,2.134,4.045Z" transform="translate(-23.888 -42.065)" fill="#7f6b59"/>
            <path id="Path_62" data-name="Path 62" d="M134.517,199.61l-1.537.175,1.537,1.943,1.537-.175Z" transform="translate(-27.104 -40.685)" fill="#7f6b59"/>
            <path id="Path_63" data-name="Path 63" d="M132.94,201.721l1.537,1.943v-1.831l-1.537-1.943Z" transform="translate(-27.096 -40.742)" fill="#7f6b59"/>
            <path id="Path_64" data-name="Path 64" d="M136.507,202.18l-1.537.167v1.831l1.537-.167Z" transform="translate(-27.51 -41.208)" fill="#7f6b59"/>
            <path id="Path_65" data-name="Path 65" d="M132.384,202.126c-.08-.143-.2-.223-.287-.191s-.08.056-.088.135a.613.613,0,0,0,.08.318l.732,1.354a.183.183,0,0,1,0,.207.072.072,0,0,1-.088,0,.27.27,0,0,1-.119-.072l-.717-1.33a.565.565,0,0,1-.064-.239v-2.134a.8.8,0,0,0-.366-.637c-.2-.111-.358,0-.358.223v1.99a2.9,2.9,0,0,0,.271,1.154l.8,1.752a1.64,1.64,0,0,1,.159.669V206.6l1.139.661v-2.205a3.432,3.432,0,0,0-.43-1.592Z" transform="translate(-26.723 -40.661)" fill="#7f6b59"/>
            <path id="Path_66" data-name="Path 66" d="M137.7,203.319c-.2-.111-.358,0-.358.223v2.126a.183.183,0,0,1-.072.167l-.717.5a.088.088,0,0,1-.088,0,.239.239,0,0,1-.1-.1.175.175,0,0,1,0-.2l.732-.5a.255.255,0,0,0,.08-.231.4.4,0,0,0-.088-.231c-.088-.135-.207-.2-.279-.143l-.7.525a1.3,1.3,0,0,0-.43,1.083v2.2l1.146.661v-1.282a.7.7,0,0,1,.151-.478l.8-.836a1.21,1.21,0,0,0,.271-.836v-2A.8.8,0,0,0,137.7,203.319Z" transform="translate(-27.655 -41.432)" fill="#7f6b59"/>
            <path id="Path_67" data-name="Path 67" d="M138.185,210.616l-8.893-5.135a.334.334,0,0,1-.151-.255V194.621c0-.1.072-.143.151-.1l8.893,5.151a.342.342,0,0,1,.143.263v10.605C138.328,210.624,138.264,210.664,138.185,210.616Zm-8.758-5.4,8.6,4.96V199.931l-8.6-4.968Z" transform="translate(-26.321 -39.644)" fill="#7f6b59"/>
            <path id="Path_68" data-name="Path 68" d="M150.829,215.261V211.9l.677.39-1.25-3.225-1.25,1.783.669.39v3.352l-1.64-.947v-3.352l.677.382-1.25-3.225-1.25,1.783.669.39v3.36l-.9-.525v1.576l5.8,3.352V215.8Z" transform="translate(-29.754 -42.283)" fill="#7f6b59"/>
            <path id="Path_69" data-name="Path 69" d="M152.878,219.136,143.961,214a.326.326,0,0,1-.151-.263V203.132c0-.1.064-.135.151-.088l8.885,5.135a.3.3,0,0,1,.151.255V219.04C153.03,219.136,152.966,219.183,152.878,219.136Zm-8.758-5.406,8.6,4.968V208.443l-8.6-4.96Z" transform="translate(-29.311 -41.381)" fill="#7f6b59"/>
            <path id="Path_70" data-name="Path 70" d="M194.136,193.257,166.62,209.141v-2.667l27.516-15.884Z" transform="translate(-33.961 -38.846)" fill="#63503d"/>
            <path id="Path_71" data-name="Path 71" d="M194.136,198.74,166.62,214.631v-1.338l27.516-15.884Z" transform="translate(-33.961 -40.236)" fill="#63503d"/>
            <path id="Path_72" data-name="Path 72" d="M194.136,201.67,166.62,217.561v-1.338l27.516-15.884Z" transform="translate(-33.961 -40.833)" fill="#63503d"/>
            <path id="Path_73" data-name="Path 73" d="M194.136,204.6,166.62,220.489v-1.338l27.516-15.892Z" transform="translate(-33.961 -41.429)" fill="#63503d"/>
            <path id="Path_74" data-name="Path 74" d="M186.509,213.06,166.62,224.548v-1.338l19.889-11.481Z" transform="translate(-33.961 -43.155)" fill="#63503d"/>
            <path id="Path_75" data-name="Path 75" d="M298.745,178.45a1.019,1.019,0,0,0-.486.748s-.1,2.572-4.331,5.016c-2.389,1.393-3.5,1.218-4.562,1.059a4.522,4.522,0,0,0-3.057.39,3.336,3.336,0,0,0-.557-1.935,3.925,3.925,0,0,1,3.049-.541c1.131.175,2.389.374,5.127-1.194,5.151-2.978,5.279-6.465,5.287-6.5,0-.263-.207-.358-.47-.215a1.019,1.019,0,0,0-.486.74c0,.111-.143,2.611-4.331,5.024-2.389,1.393-3.5,1.218-4.562,1.059a4.721,4.721,0,0,0-3.662.7c-.191.111-.374.231-.557.358-.947-.605-2.389-.51-3.981.414-2.834,1.592-5.135,5.263-5.135,8.1s2.3,3.8,5.135,2.166a11.091,11.091,0,0,0,5.056-7.166,3.8,3.8,0,0,1,2.564-.295c1.131.175,2.389.374,5.127-1.194,5.151-2.978,5.279-6.465,5.287-6.5C299.215,178.4,299.008,178.306,298.745,178.45Zm-17.564,14.435c-2.309,1.33-4.18.533-4.18-1.768s1.871-5.271,4.18-6.6a3.511,3.511,0,0,1,2.842-.518,19.554,19.554,0,0,0-4.275,5.422c-.151.3-.1.573.111.605a.47.47,0,0,0,.279-.072,1.019,1.019,0,0,0,.382-.43,17.173,17.173,0,0,1,4.188-5.1,2.484,2.484,0,0,1,.645,1.768,17.835,17.835,0,0,0-5.573,6.369c-.151.3-.1.573.111.605a.8.8,0,0,0,.661-.494,16.529,16.529,0,0,1,4.777-5.5,9.092,9.092,0,0,1-4.148,5.709Z" transform="translate(-56.261 -35.711)" fill="#63503d"/>
            <path id="Path_76" data-name="Path 76" d="M160.08,176.939l127.46-73.6,37.914,7.715-127.46,73.6Z" transform="translate(-32.628 -21.063)" fill="#f0cfa8"/>
            <path id="Path_77" data-name="Path 77" d="M53.617,110.39,24.23,73.591,151.7,0l29.379,36.8Z" transform="translate(-4.939)" fill="#f0cfa8"/>
            <path id="Path_78" data-name="Path 78" d="M78.774,176.168l48.678,6.338L48.678,137.028,0,130.69Z" transform="translate(0 -26.637)" fill="#f0cfa8"/>
            <path id="Path_79" data-name="Path 79" d="M300.014,83.2,322.2,49.988,243.422,4.51,221.24,37.719Z" transform="translate(-45.093 -0.919)" fill="#f0cfa8"/>
          </g>
        </g>
      </g>
    </g>
  </g>
</svg>
